<svg width="200" height="225" viewBox="0 0 200 225" fill="none" xmlns="http://www.w3.org/2000/svg">
<path fill-rule="evenodd" clip-rule="evenodd" d="M200 100C200 44.7715 155.228 0 100 0C44.7715 0 0 44.7715 0 100C0 155.228 44.7715 200 100 200C155.228 200 200 155.228 200 100ZM133 100C133 81.7746 118.225 67 100 67C81.7746 67 67 81.7746 67 100C67 118.225 81.7746 133 100 133C118.225 133 133 118.225 133 100Z" fill="#012F34"/>
<rect x="43" width="43" height="43" transform="rotate(90 43 0)" fill="#79C8C7"/>
<path fill-rule="evenodd" clip-rule="evenodd" d="M200 124.487C200 69.258 155.228 24.4865 100 24.4865C44.7715 24.4865 0 69.258 0 124.487C0 179.715 44.7715 224.487 100 224.487C155.228 224.487 200 179.715 200 124.487ZM133 124.487C133 106.261 118.225 91.4865 100 91.4865C81.7746 91.4865 67 106.261 67 124.487C67 142.712 81.7746 157.487 100 157.487C118.225 157.487 133 142.712 133 124.487Z" fill="#F67E7E"/>
</svg>
